<?xml version="1.0" standalone="no"?>
<!DOCTYPE svg PUBLIC "-//W3C//DTD SVG 20010904//EN"
 "http://www.w3.org/TR/2001/REC-SVG-20010904/DTD/svg10.dtd">
<svg version="1.0" xmlns="http://www.w3.org/2000/svg"
 width="200.000000pt" height="200.000000pt" viewBox="0 0 200.000000 200.000000"
 preserveAspectRatio="xMidYMid meet">

<g transform="translate(0.000000,200.000000) scale(0.100000,-0.100000)"
fill="#000000" stroke="none">
<path d="M492 1387 c-270 -270 -492 -499 -492 -508 0 -32 23 -39 132 -39 l108
0 0 -348 c0 -257 3 -351 12 -360 9 -9 103 -12 361 -12 l348 0 -26 34 c-62 81
-83 211 -49 308 9 28 44 80 89 132 80 93 101 138 90 193 l-7 37 -28 -52 c-16
-29 -65 -91 -111 -140 -106 -112 -121 -147 -117 -258 2 -46 2 -84 0 -84 -2 0
-17 7 -35 16 -62 32 -116 84 -143 140 -68 138 -10 283 175 435 116 96 221 245
221 314 l0 25 43 -21 c121 -61 254 -186 301 -282 78 -159 39 -393 -89 -520
-59 -59 -133 -95 -239 -115 l-84 -16 18 -36 c10 -20 37 -53 59 -73 l41 -37
333 0 c246 0 336 3 345 12 9 9 12 103 12 360 l0 348 108 0 c110 0 132 7 132
40 0 8 -56 71 -125 140 l-125 125 0 171 c0 148 -2 173 -16 178 -29 11 -189 7
-202 -6 -7 -7 -12 -35 -12 -62 l0 -51 -253 253 c-138 138 -259 252 -267 252
-8 0 -237 -222 -508 -493z"/>
</g>
</svg>
