<?xml version="1.0" standalone="no"?>
<!DOCTYPE svg PUBLIC "-//W3C//DTD SVG 20010904//EN"
 "http://www.w3.org/TR/2001/REC-SVG-20010904/DTD/svg10.dtd">
<svg version="1.0" xmlns="http://www.w3.org/2000/svg"
 width="860.000000pt" height="903.000000pt" viewBox="0 0 860.000000 903.000000"
 preserveAspectRatio="xMidYMid meet">

<g transform="translate(0.000000,903.000000) scale(0.100000,-0.100000)"
fill="#000000" stroke="none">
<path d="M305 8538 c31 -386 72 -703 131 -1002 230 -1173 643 -2010 1219
-2471 329 -264 721 -405 1126 -405 l132 0 -6 137 c-25 505 -229 1256 -501
1837 -25 55 -45 101 -43 103 4 3 176 -235 309 -427 166 -239 434 -677 602
-982 254 -464 530 -1093 645 -1471 218 -717 329 -1548 350 -2602 l7 -370 30
-65 c38 -79 101 -145 174 -179 48 -23 68 -26 155 -26 81 0 109 4 147 22 66 30
135 97 171 168 l32 60 3 230 c4 270 -11 671 -39 1015 -10 135 -22 281 -25 325
-6 72 -2 97 35 245 91 360 229 712 369 942 21 35 78 135 127 223 233 422 507
827 776 1150 181 216 487 509 656 629 l58 41 -61 -75 c-173 -210 -352 -485
-471 -718 -143 -284 -213 -504 -248 -781 l-7 -54 153 6 c445 17 794 175 1106
500 479 500 798 1419 878 2535 l7 92 -34 0 c-59 0 -346 -29 -498 -50 -1404
-198 -2327 -730 -2580 -1488 -91 -274 -102 -555 -34 -903 l27 -136 -77 -80
c-139 -145 -279 -331 -397 -528 l-53 -90 -14 50 c-30 114 -134 421 -191 565
-77 193 -216 477 -310 633 l-71 118 25 92 c60 222 92 426 101 647 47 1136
-746 1956 -2304 2380 -448 122 -1196 239 -1526 240 l-68 0 7 -82z"/>
</g>
</svg>
