<?xml version="1.0" standalone="no"?>
<!DOCTYPE svg PUBLIC "-//W3C//DTD SVG 20010904//EN"
 "http://www.w3.org/TR/2001/REC-SVG-20010904/DTD/svg10.dtd">
<svg version="1.0" xmlns="http://www.w3.org/2000/svg"
 width="360.000000pt" height="360.000000pt" viewBox="0 0 360.000000 360.000000"
 preserveAspectRatio="xMidYMid meet">

<g transform="translate(0.000000,360.000000) scale(0.100000,-0.100000)"
fill="#000000" stroke="none">
<path d="M825 2386 c-145 -34 -248 -87 -336 -175 -131 -132 -198 -323 -186
-530 15 -254 140 -456 341 -554 329 -160 726 -65 1083 258 l73 66 78 -69 c228
-205 455 -313 693 -328 441 -29 754 281 726 717 -10 152 -50 267 -130 376
-174 234 -521 317 -823 197 -149 -58 -279 -148 -437 -303 l-108 -105 -82 85
c-181 187 -365 306 -547 354 -89 23 -269 29 -345 11z m321 -321 c38 -14 102
-46 142 -72 82 -50 238 -194 283 -259 l29 -42 -68 -63 c-246 -227 -467 -314
-673 -265 -115 27 -198 101 -236 209 -27 78 -24 244 5 318 41 104 127 174 242
199 75 15 198 4 276 -25z m1647 5 c78 -29 147 -97 177 -175 20 -50 24 -78 24
-170 0 -124 -19 -190 -75 -258 -79 -95 -242 -139 -401 -106 -126 26 -324 147
-452 278 l-59 60 44 57 c112 145 340 304 480 334 68 14 197 4 262 -20z"/>
<path d="M750 1725 l0 -75 225 0 225 0 0 75 0 75 -225 0 -225 0 0 -75z"/>
<path d="M2550 1875 l0 -75 -75 0 -75 0 0 -75 0 -75 75 0 75 0 0 -75 0 -75 75
0 75 0 0 75 0 75 75 0 75 0 0 75 0 75 -75 0 -75 0 0 75 0 75 -75 0 -75 0 0
-75z"/>
</g>
</svg>
